<svg width="25" height="25" viewBox="0 0 25 25" fill="none" xmlns="http://www.w3.org/2000/svg">
<path d="M20.94 7.32006L15.18 3.29006C13.61 2.19006 11.2 2.25006 9.69 3.42006L4.68 7.33006C3.68 8.11006 2.89 9.71006 2.89 10.9701V17.8701C2.89 20.4201 4.96 22.5001 7.51 22.5001H18.29C20.84 22.5001 22.91 20.4301 22.91 17.8801V11.1001C22.91 9.75006 22.04 8.09006 20.94 7.32006ZM13.65 18.5001C13.65 18.9101 13.31 19.2501 12.9 19.2501C12.49 19.2501 12.15 18.9101 12.15 18.5001V15.5001C12.15 15.0901 12.49 14.7501 12.9 14.7501C13.31 14.7501 13.65 15.0901 13.65 15.5001V18.5001Z" fill="#FF8142"/>
</svg>
