<svg width="16" height="16" viewBox="0 0 16 16" fill="none" xmlns="http://www.w3.org/2000/svg">
<path d="M8 9.33331C9.10457 9.33331 10 8.43788 10 7.33331C10 6.22874 9.10457 5.33331 8 5.33331C6.89543 5.33331 6 6.22874 6 7.33331C6 8.43788 6.89543 9.33331 8 9.33331Z" stroke="#FF8142" stroke-width="1.5" stroke-linecap="round" stroke-linejoin="round"/>
<path d="M11.7713 11.1047L8.94266 13.9333C8.69265 14.1831 8.35371 14.3234 8.00033 14.3234C7.64694 14.3234 7.308 14.1831 7.05799 13.9333L4.22866 11.1047C3.48281 10.3588 2.97488 9.40845 2.76912 8.3739C2.56335 7.33934 2.66899 6.267 3.07266 5.29247C3.47634 4.31795 4.15992 3.48501 5.03698 2.89899C5.91404 2.31297 6.94517 2.00018 7.99999 2.00018C9.05481 2.00018 10.0859 2.31297 10.963 2.89899C11.8401 3.48501 12.5236 4.31795 12.9273 5.29247C13.331 6.267 13.4366 7.33934 13.2309 8.3739C13.0251 9.40845 12.5172 10.3588 11.7713 11.1047V11.1047Z" stroke="#FF8142" stroke-width="1.5" stroke-linecap="round" stroke-linejoin="round"/>
</svg>
