<svg width="25" height="25" viewBox="0 0 25 25" fill="none" xmlns="http://www.w3.org/2000/svg">
<path d="M19.8 13C19.8 11.62 20.92 10.5 22.3 10.5V9.5C22.3 5.5 21.3 4.5 17.3 4.5H7.30001C3.30001 4.5 2.30001 5.5 2.30001 9.5V10C3.68001 10 4.80001 11.12 4.80001 12.5C4.80001 13.88 3.68001 15 2.30001 15V15.5C2.30001 19.5 3.30001 20.5 7.30001 20.5H17.3C21.3 20.5 22.3 19.5 22.3 15.5C20.92 15.5 19.8 14.38 19.8 13Z" stroke="#9CA3AF" stroke-width="1.5" stroke-linecap="round" stroke-linejoin="round"/>
<path d="M10.3 4.5L10.3 20.5" stroke="#9CA3AF" stroke-width="1.5" stroke-linecap="round" stroke-linejoin="round" stroke-dasharray="5 5"/>
</svg>
