<svg width="16" height="16" viewBox="0 0 16 16" fill="none" xmlns="http://www.w3.org/2000/svg">
<path d="M14.1 4.11333C13.8267 3.96666 13.2533 3.81333 12.4733 4.36L11.4933 5.05333C11.42 2.98 10.52 2.16666 8.33332 2.16666H4.33332C2.05332 2.16666 1.16666 3.05333 1.16666 5.33333V10.6667C1.16666 12.2 1.99999 13.8333 4.33332 13.8333H8.33332C10.52 13.8333 11.42 13.02 11.4933 10.9467L12.4733 11.64C12.8867 11.9333 13.2467 12.0267 13.5333 12.0267C13.78 12.0267 13.9733 11.9533 14.1 11.8867C14.3733 11.7467 14.8333 11.3667 14.8333 10.4133V5.58666C14.8333 4.63333 14.3733 4.25333 14.1 4.11333ZM7.33332 7.58666C6.64666 7.58666 6.07999 7.02666 6.07999 6.33333C6.07999 5.64 6.64666 5.08 7.33332 5.08C8.01999 5.08 8.58666 5.64 8.58666 6.33333C8.58666 7.02666 8.01999 7.58666 7.33332 7.58666Z" fill="white"/>
</svg>
